<?xml version="1.0" encoding="UTF-8"?>
<svg version="1.1" xmlns="http://www.w3.org/2000/svg" width="136" height="136">
<path d="M0 0 C0 30.36 0 60.72 0 92 C-30.36 92 -60.72 92 -92 92 C-90.02 89.69 -88.04 87.38 -86 85 C-85.32195816 84.13492325 -84.64391632 83.2698465 -83.94532776 82.3785553 C-80.88854031 78.79994269 -78.50233826 76.37076168 -73.8510437 75.22286987 C-70.12639499 74.96050151 -66.50871573 74.98650648 -62.77734375 75.12109375 C-61.42261518 75.13791473 -60.06783123 75.15070942 -58.71302795 75.15968323 C-55.17534795 75.19377958 -51.64108215 75.28192811 -48.10473633 75.38201904 C-44.48500755 75.47468361 -40.86471778 75.51531646 -37.24414062 75.56054688 C-30.16137745 75.65659098 -23.08091351 75.80984888 -16 76 C-16.03330917 75.26909653 -16.06661835 74.53819305 -16.10093689 73.78514099 C-16.40395092 66.8303872 -16.63105781 59.87664079 -16.77718258 52.91694546 C-16.85485915 49.33959136 -16.95974693 45.7677704 -17.1315918 42.19360352 C-18.30158649 17.22883289 -18.30158649 17.22883289 -12.62939453 9.68798828 C-3.75636484 0 -3.75636484 0 0 0 Z " fill="#785A28" transform="translate(120,28)"/>
<path d="M0 0 C30.36 0 60.72 0 92 0 C90.02 2.31 88.04 4.62 86 7 C85.32195816 7.86507675 84.64391632 8.7301535 83.94532776 9.6214447 C80.88854031 13.20005731 78.50233826 15.62923832 73.8510437 16.77713013 C70.12639499 17.03949849 66.50871573 17.01349352 62.77734375 16.87890625 C61.42261518 16.86208527 60.06783123 16.84929058 58.71302795 16.84031677 C55.17534795 16.80622042 51.64108215 16.71807189 48.10473633 16.61798096 C44.48500755 16.52531639 40.86471778 16.48468354 37.24414062 16.43945312 C30.16137745 16.34340902 23.08091351 16.19015112 16 16 C16.04996376 17.09635521 16.04996376 17.09635521 16.10093689 18.21485901 C16.40395092 25.1696128 16.63105781 32.12335921 16.77718258 39.08305454 C16.85485915 42.66040864 16.95974693 46.2322296 17.1315918 49.80639648 C18.30158649 74.77116711 18.30158649 74.77116711 12.62939453 82.31201172 C9.12443492 86.13889034 5.34422736 89.17474656 1 92 C0.67 92 0.34 92 0 92 C0 61.64 0 31.28 0 0 Z " fill="#785A28" transform="translate(16,16)"/>
<path d="M0 0 C7.92 0 15.84 0 24 0 C24 7.92 24 15.84 24 24 C16.08 24 8.16 24 0 24 C0 16.08 0 8.16 0 0 Z " fill="#785A28" transform="translate(56,56)"/>
<path d="M0 0 C0.66 0.33 1.32 0.66 2 1 C0.68 1.99 -0.64 2.98 -2 4 C-2 3.01 -2 2.02 -2 1 C-1.34 0.67 -0.68 0.34 0 0 Z " fill="#C8AA6E" transform="translate(18,109)"/>
<path d="" fill="#C8AA6E" transform="translate(0,0)"/>
</svg>
