<?xml version="1.0" encoding="UTF-8"?>
<svg version="1.1" xmlns="http://www.w3.org/2000/svg" width="136" height="136">
<path d="M0 0 C0.9075 0.37125 1.815 0.7425 2.75 1.125 C5.8703187 2.32506684 5.8703187 2.32506684 8.203125 1.0546875 C8.79609375 0.70664062 9.3890625 0.35859375 10 0 C11.57471788 7.72134211 13.14034998 15.44448647 14.69970703 23.16894531 C15.23049793 25.79613722 15.76416053 28.4227212 16.30029297 31.04882812 C17.07024572 34.82573921 17.83271421 38.60409592 18.59375 42.3828125 C18.95466736 44.14094772 18.95466736 44.14094772 19.32287598 45.93460083 C19.54310425 47.035289 19.76333252 48.13597717 19.99023438 49.27001953 C20.18564819 50.23376495 20.38106201 51.19751038 20.58239746 52.19046021 C21.73680629 59.95707375 21.73680629 59.95707375 19.79418945 62.70678711 C18.96213989 63.36046265 18.96213989 63.36046265 18.11328125 64.02734375 C17.50419922 64.50880859 16.89511719 64.99027344 16.26757812 65.48632812 C15.62240234 65.96521484 14.97722656 66.44410156 14.3125 66.9375 C13.68666016 67.44345703 13.06082031 67.94941406 12.41601562 68.47070312 C7.85753534 71.96951575 7.85753534 71.96951575 4.47265625 72.08984375 C1.09319349 70.60031751 -1.8891632 68.77189593 -4.875 66.625 C-5.48085938 66.24472656 -6.08671875 65.86445312 -6.7109375 65.47265625 C-8.61864475 64.0895685 -9.73854194 62.99680623 -11 61 C-11.37346293 53.37430099 -9.2455437 45.4198358 -7.71484375 37.98828125 C-7.49429825 36.89404343 -7.27375275 35.7998056 -7.04652405 34.67240906 C-6.3489827 31.21797228 -5.64338605 27.76524019 -4.9375 24.3125 C-4.45975037 21.95388457 -3.98253177 19.5951615 -3.50585938 17.23632812 C-2.34337217 11.48962759 -1.17428795 5.74430011 0 0 Z " fill="#C8AA6E" transform="translate(63,52)"/>
<path d="M0 0 C2.11771101 0.05525591 4.23556098 0.10543211 6.35351562 0.15039062 C11.50997765 0.27082357 16.65969024 0.46014678 21.8125 0.6875 C10.55661926 12.0764207 -0.17922214 17.18567311 -16.1875 17.6875 C-15.465625 18.59113281 -14.74375 19.49476562 -14 20.42578125 C-13.06212023 21.61688856 -12.12464095 22.80831131 -11.1875 24 C-10.71054688 24.59490234 -10.23359375 25.18980469 -9.7421875 25.80273438 C-6.1875 30.34765625 -6.1875 30.34765625 -6.1875 33.6875 C-8.93406201 34.86288461 -11.68424122 36.02799752 -14.4375 37.1875 C-15.21480469 37.52136719 -15.99210937 37.85523438 -16.79296875 38.19921875 C-17.92412109 38.67294922 -17.92412109 38.67294922 -19.078125 39.15625 C-19.76938477 39.44951172 -20.46064453 39.74277344 -21.17285156 40.04492188 C-23.1875 40.6875 -23.1875 40.6875 -27.1875 40.6875 C-28.36524966 36.79492998 -29.52773827 32.89796365 -30.6875 29 C-31.02136719 27.89720703 -31.35523437 26.79441406 -31.69921875 25.65820312 C-32.01503906 24.59150391 -32.33085938 23.52480469 -32.65625 22.42578125 C-32.94951172 21.44649658 -33.24277344 20.46721191 -33.54492188 19.45825195 C-34.56088202 15.07750285 -34.82662007 12.84050516 -32.59643555 8.81713867 C-23.47470282 -1.93428328 -13.2616785 -0.60275657 0 0 Z " fill="#C8AA6E" transform="translate(114.1875,35.3125)"/>
<path d="M0 0 C6.20692129 -0.27386293 12.41026221 -0.47239316 18.62182617 -0.60424805 C20.72987169 -0.65925176 22.83750359 -0.73408744 24.9440918 -0.82983398 C44.26256584 -1.68528145 44.26256584 -1.68528145 50.57098389 3.57792664 C53.35670061 6.41064237 55.56185535 9.2284691 56.52490234 13.12231445 C56.35582891 15.29680242 55.78197122 16.9643016 55 19 C54.52376216 20.79003238 54.05414551 22.58183457 53.58984375 24.375 C53.04518187 26.25178673 52.49429903 28.12677822 51.9375 30 C51.65583984 30.96550781 51.37417969 31.93101563 51.08398438 32.92578125 C50.39475721 35.28550816 49.69999989 37.64345085 49 40 C43.97525707 39.38169051 39.75279506 37.87023224 35.125 35.9375 C34.09246094 35.51500977 34.09246094 35.51500977 33.0390625 35.08398438 C31.35710091 34.39484734 29.67822303 33.69819202 28 33 C28.55848826 28.81641523 31.04446302 25.97370431 33.5625 22.75 C33.98724609 22.19570313 34.41199219 21.64140625 34.84960938 21.0703125 C35.89398341 19.70910589 36.94622464 18.35394167 38 17 C37.17757812 16.97421875 36.35515625 16.9484375 35.5078125 16.921875 C21.88076435 16.22950766 12.52498193 11.30678079 2 3 C1.34 2.01 0.68 1.02 0 0 Z " fill="#C8AA6E" transform="translate(0,36)"/>
<path d="M0 0 C4.62632203 -0.14852367 9.25125242 -0.25729019 13.87939453 -0.32958984 C15.45288263 -0.35973081 17.02620312 -0.40065294 18.59912109 -0.45263672 C20.86337587 -0.52558491 23.12540814 -0.55947806 25.390625 -0.5859375 C26.09181458 -0.61690521 26.79300415 -0.64787292 27.51544189 -0.67977905 C29.51660156 -0.68115234 29.51660156 -0.68115234 33 0 C35.41782964 2.82869796 36.92137195 4.65240259 37.140625 8.41015625 C35.39615401 12.37106126 32.6462965 15.25917901 29.75 18.4375 C28.59849164 19.72744813 27.44744383 21.01780754 26.296875 22.30859375 C25.74193359 22.92589355 25.18699219 23.54319336 24.61523438 24.17919922 C22.347075 26.73602096 20.1706536 29.36012616 18 32 C15.07014255 30.69853887 13.21381267 29.40795226 11.16015625 26.953125 C10.65419922 26.355 10.14824219 25.756875 9.62695312 25.140625 C9.11068359 24.51671875 8.59441406 23.8928125 8.0625 23.25 C7.55009766 22.6415625 7.03769531 22.033125 6.50976562 21.40625 C5.49240545 20.19627653 4.48018412 18.98196186 3.47338867 17.76318359 C2.50152716 16.60017053 1.51224627 15.45146624 0.50512695 14.31884766 C-3.00659266 10.32963301 -3.00659266 10.32963301 -2.9375 6.875 C-2.1336517 4.40986523 -1.18554865 2.29238868 0 0 Z " fill="#C8AA6E" transform="translate(51,12)"/>
</svg>
