<?xml version="1.0" encoding="UTF-8"?>
<svg version="1.1" xmlns="http://www.w3.org/2000/svg" width="136" height="136">
<path d="M0 0 C32.01 0 64.02 0 97 0 C90.17191283 7.96610169 90.17191283 7.96610169 87.5625 10.5625 C87.04816406 11.07941406 86.53382812 11.59632812 86.00390625 12.12890625 C85.01197266 13.05509766 85.01197266 13.05509766 84 14 C83.58269623 14.48662613 83.16539246 14.97325226 82.73544312 15.47462463 C79.07373833 19.29585132 76.26701398 20.42917204 70.97290039 20.68115234 C68.59760715 20.68020863 66.22217301 20.64667491 63.84765625 20.5859375 C61.96475136 20.57320297 61.96475136 20.57320297 60.04380798 20.56021118 C56.72689762 20.53240578 53.41252257 20.47863572 50.09631348 20.4119873 C46.70440432 20.35030142 43.31223181 20.3231407 39.91992188 20.29296875 C33.27925428 20.22694759 26.63977332 20.12664144 20 20 C20.04996376 21.01785583 20.04996376 21.01785583 20.10093689 22.05627441 C20.43582701 29.19433534 20.66020178 36.33013193 20.82397461 43.47412109 C20.89040018 46.13396193 21.00061958 48.78128781 21.1315918 51.43994141 C22.30376818 75.8671778 22.30376818 75.8671778 14.81117249 84.5411377 C11.71844898 87.62686487 8.48540775 90.37251545 5 93 C3.35 94.32 1.7 95.64 0 97 C0 64.99 0 32.98 0 0 Z " fill="#C8AA6E" transform="translate(16,16)"/>
<path d="M0 0 C0 30.36 0 60.72 0 92 C-30.36 92 -60.72 92 -92 92 C-90.02 89.69 -88.04 87.38 -86 85 C-85.32195816 84.13492325 -84.64391632 83.2698465 -83.94532776 82.3785553 C-80.88854031 78.79994269 -78.50233826 76.37076168 -73.8510437 75.22286987 C-70.12639499 74.96050151 -66.50871573 74.98650648 -62.77734375 75.12109375 C-61.42261518 75.13791473 -60.06783123 75.15070942 -58.71302795 75.15968323 C-55.17534795 75.19377958 -51.64108215 75.28192811 -48.10473633 75.38201904 C-44.48500755 75.47468361 -40.86471778 75.51531646 -37.24414062 75.56054688 C-30.16137745 75.65659098 -23.08091351 75.80984888 -16 76 C-16.03330917 75.26909653 -16.06661835 74.53819305 -16.10093689 73.78514099 C-16.40395092 66.8303872 -16.63105781 59.87664079 -16.77718258 52.91694546 C-16.85485915 49.33959136 -16.95974693 45.7677704 -17.1315918 42.19360352 C-18.30158649 17.22883289 -18.30158649 17.22883289 -12.62939453 9.68798828 C-3.75636484 0 -3.75636484 0 0 0 Z " fill="#785A28" transform="translate(120,28)"/>
<path d="M0 0 C9.24 0 18.48 0 28 0 C28 9.24 28 18.48 28 28 C18.76 28 9.52 28 0 28 C0 18.76 0 9.52 0 0 Z " fill="#785A28" transform="translate(56,56)"/>
</svg>
